<svg viewBox="0 0 512 512" xmlns="http://www.w3.org/2000/svg" xmlns:xlink="http://www.w3.org/1999/xlink">
    <style>
        :root>svg{display:none}:root>svg:target{display:block}
    </style>
    <svg fill="none" viewBox="0 0 17 17" id="cart" xmlns="http://www.w3.org/2000/svg">
        <g clip-path="url(#aclip0)" fill="#000">
            <path d="M5.596 12.495a2.025 2.025 0 100 4.05 2.025 2.025 0 000-4.05zm0 3.305a1.28 1.28 0 110-2.56 1.28 1.28 0 010 2.56zM16.631 3.998H3.49l-.268-1.5A2.237 2.237 0 001.41.688L.437.519a.372.372 0 10-.13.733l.975.171c.616.11 1.097.59 1.206 1.206l1.318 7.433a1.856 1.856 0 001.83 1.537h7.817a1.856 1.856 0 001.783-1.322l1.749-5.798a.39.39 0 00-.056-.331.377.377 0 00-.298-.15zm-2.106 6.059a1.11 1.11 0 01-1.068.793H5.64a1.11 1.11 0 01-1.098-.923l-.92-5.189h12.51l-1.608 5.319zm-1.113 2.438a2.025 2.025 0 100 4.05 2.025 2.025 0 000-4.05zm0 3.305a1.28 1.28 0 110-2.56 1.28 1.28 0 010 2.56z"/>
        </g>
        <defs>
            <clipPath id="aclip0">
                <path fill="#fff" d="M0 0h17v17H0z"/>
            </clipPath>
        </defs>
    </svg>
    <svg fill="none" viewBox="0 0 13 13" id="cross" xmlns="http://www.w3.org/2000/svg">
        <path fill="#EE766C" d="M6 0h1v13H6z"/>
        <path fill="#EE766C" d="M0 7V6h13v1z"/>
    </svg>
    <svg fill="none" viewBox="0 0 20 20" id="discount" xmlns="http://www.w3.org/2000/svg">
        <g clip-path="url(#cclip0)" fill="#EE766C">
            <path d="M20 1.363a1.348 1.348 0 00-.397-.966 1.365 1.365 0 00-1.93.006c-.11.11-.309.346-.418.477a.324.324 0 10.499.414c.17-.205.311-.367.377-.432a.721.721 0 01.51-.213h.003a.704.704 0 01.708.711.722.722 0 01-.213.51c-.122.122-.543.456-1.145.876a2.053 2.053 0 00-1.772-1.02h-4.745c-.64 0-1.243.25-1.696.703L.297 11.913a1.009 1.009 0 00-.297.718c0 .271.106.526.297.718l6.355 6.354a1.012 1.012 0 001.436 0l9.483-9.484a2.382 2.382 0 00.703-1.695V3.779c0-.14-.015-.277-.041-.409.685-.472 1.189-.866 1.364-1.042.258-.258.401-.601.403-.965zm-2.374 7.16c0 .468-.182.907-.513 1.238L7.63 19.245a.368.368 0 01-.52 0L.757 12.89a.365.365 0 010-.52l9.484-9.484c.33-.33.77-.512 1.237-.512h4.744c.533 0 .998.298 1.236.737-.383.253-.812.523-1.266.788a1.363 1.363 0 00-1.968-.046 1.362 1.362 0 00.962 2.322A1.357 1.357 0 0016.5 4.47c.395-.23.775-.466 1.125-.693v4.748zm-2.73-3.562a.324.324 0 00.434.144c.19-.095.38-.195.567-.296a.71.71 0 01-1.216.511.714.714 0 01.915-1.085c-.183.1-.37.197-.557.291a.324.324 0 00-.144.435z"/>
            <path d="M9.655 6.6a.324.324 0 00-.324.324v6.843a.324.324 0 00.648 0V6.924a.324.324 0 00-.324-.324zM8.173 9.383a1.362 1.362 0 00-1.924 0 1.362 1.362 0 00.962 2.323 1.357 1.357 0 001.36-1.36c0-.364-.14-.706-.398-.963zm-.458 1.467a.714.714 0 11-1.008-1.01.714.714 0 011.008 1.01zm5.345-1.467a1.362 1.362 0 00-1.924 0 1.362 1.362 0 00.963 2.323 1.362 1.362 0 00.962-2.323zm-.457 1.467a.714.714 0 11-1.008-1.01.714.714 0 011.008 1.01z"/>
        </g>
        <defs>
            <clipPath id="cclip0">
                <path fill="#fff" d="M0 0h20v20H0z"/>
            </clipPath>
        </defs>
    </svg>
    <svg fill="none" viewBox="0 0 10 17" id="fb" xmlns="http://www.w3.org/2000/svg">
        <path d="M9.365.17L7.031.167c-2.622 0-4.317 1.563-4.317 3.982v1.836H.367c-.203 0-.367.148-.367.33v2.661c0 .183.164.33.367.33h2.347v6.714c0 .182.164.33.367.33h3.062c.203 0 .367-.148.367-.33V9.306h2.744c.203 0 .367-.147.367-.33l.001-2.66a.314.314 0 00-.107-.234.389.389 0 00-.26-.097H6.51V4.43c0-.748.198-1.128 1.282-1.128h1.573c.202 0 .367-.148.367-.33V.5c0-.182-.164-.33-.367-.33z" fill="#CECECE"/>
    </svg>
    <svg fill="none" viewBox="0 0 21 21" id="filter-list" xmlns="http://www.w3.org/2000/svg">
        <path d="M9.625 15.75h1.75a.878.878 0 00.875-.875.878.878 0 00-.875-.875h-1.75a.878.878 0 00-.875.875c0 .481.394.875.875.875zm-7-9.625c0 .481.394.875.875.875h14a.878.878 0 00.875-.875.878.878 0 00-.875-.875h-14a.878.878 0 00-.875.875zm3.5 5.25h8.75a.878.878 0 00.875-.875.878.878 0 00-.875-.875h-8.75a.878.878 0 00-.875.875c0 .481.394.875.875.875z" fill="#6C6C6C"/>
    </svg>
    <svg viewBox="0 0 512 512" id="heart" xmlns="http://www.w3.org/2000/svg">
        <path d="M474.644 74.27C449.391 45.616 414.358 29.836 376 29.836c-53.948 0-88.103 32.22-107.255 59.25-4.969 7.014-9.196 14.047-12.745 20.665-3.549-6.618-7.775-13.651-12.745-20.665-19.152-27.03-53.307-59.25-107.255-59.25-38.358 0-73.391 15.781-98.645 44.435C13.267 101.605 0 138.213 0 177.351c0 42.603 16.633 82.228 52.345 124.7 31.917 37.96 77.834 77.088 131.005 122.397 19.813 16.884 40.302 34.344 62.115 53.429l.655.574c2.828 2.476 6.354 3.713 9.88 3.713s7.052-1.238 9.88-3.713l.655-.574c21.813-19.085 42.302-36.544 62.118-53.431 53.168-45.306 99.085-84.434 131.002-122.395C495.367 259.578 512 219.954 512 177.351c0-39.138-13.267-75.746-37.356-103.081zM309.193 401.614c-17.08 14.554-34.658 29.533-53.193 45.646-18.534-16.111-36.113-31.091-53.196-45.648C98.745 312.939 30 254.358 30 177.351c0-31.83 10.605-61.394 29.862-83.245C79.34 72.007 106.379 59.836 136 59.836c41.129 0 67.716 25.338 82.776 46.594 13.509 19.064 20.558 38.282 22.962 45.659a15 15 0 0028.524 0c2.404-7.377 9.453-26.595 22.962-45.66 15.06-21.255 41.647-46.593 82.776-46.593 29.621 0 56.66 12.171 76.137 34.27C471.395 115.957 482 145.521 482 177.351c0 77.007-68.745 135.588-172.807 224.263z"/>
    </svg>
    <svg viewBox="0 0 133.8 133.8" id="heart-red" xmlns="http://www.w3.org/2000/svg">
        <style>
            .gst0{fill:#dd2424}
        </style>
        <g id="gLayer_1">
            <path class="gst0" d="M41.9 100.7L11.8 70.6C-2 56.8-2 34.3 11.8 20.5c13.8-13.8 36.3-13.8 50.1 0L92 50.6c13.8 13.8 13.8 36.3 0 50.1-13.8 13.8-36.4 13.8-50.1 0z"/>
            <path class="gst0" d="M41.9 50.6L72 20.5c13.8-13.8 36.3-13.8 50.1 0 13.8 13.8 13.8 36.3 0 50.1L92 100.7c-13.8 13.8-36.3 13.8-50.1 0-13.8-13.8-13.8-36.3 0-50.1z"/>
            <path class="gst0" d="M63.4 122.2L36.6 95.4c-1.9-1.9-1.9-5.1 0-7.1l26.8-26.8c1.9-1.9 5.1-1.9 7.1 0l26.8 26.8c1.9 1.9 1.9 5.1 0 7.1l-26.8 26.8c-2 1.9-5.2 1.9-7.1 0z"/>
        </g>
    </svg>
    <svg fill="none" viewBox="0 0 20 20" id="instagram" xmlns="http://www.w3.org/2000/svg">
        <path d="M13.75 0h-7.5A6.25 6.25 0 000 6.25v7.5A6.25 6.25 0 006.25 20h7.5A6.25 6.25 0 0020 13.75v-7.5A6.25 6.25 0 0013.75 0zm4.375 13.75a4.38 4.38 0 01-4.375 4.375h-7.5a4.38 4.38 0 01-4.375-4.375v-7.5A4.38 4.38 0 016.25 1.875h7.5a4.38 4.38 0 014.375 4.375v7.5z" fill="#CECECE"/>
        <path d="M10 5a5 5 0 100 10 5 5 0 000-10zm0 8.125A3.13 3.13 0 016.875 10 3.129 3.129 0 0110 6.875 3.129 3.129 0 0113.125 10 3.13 3.13 0 0110 13.125zm5.375-7.834a.666.666 0 100-1.332.666.666 0 000 1.332z" fill="#CECECE"/>
    </svg>
    <svg fill="none" viewBox="0 0 16 16" id="mail" xmlns="http://www.w3.org/2000/svg">
        <path d="M14.667 2H1.333C.598 2 0 2.598 0 3.333v9.334C0 13.402.598 14 1.333 14h13.334c.735 0 1.333-.598 1.333-1.333V3.333C16 2.598 15.402 2 14.667 2zm-13.334.667h13.334c.036 0 .068.015.103.02l-6.416 5.21a.712.712 0 01-.684.017L1.23 2.688c.035-.006.067-.021.103-.021zm14 10a.667.667 0 01-.666.666H1.333a.667.667 0 01-.666-.666V3.333a.67.67 0 01.042-.21l6.57 5.33a1.327 1.327 0 001.473-.022l6.539-5.308a.651.651 0 01.042.21v9.334z" fill="#000"/>
    </svg>
    <svg fill="none" viewBox="0 0 16 16" id="mark" xmlns="http://www.w3.org/2000/svg">
        <path d="M8 0C4.691 0 2 2.692 2 6c0 4.426 5.536 9.688 5.771 9.91a.334.334 0 00.458 0C8.464 15.686 14 10.425 14 6c0-3.308-2.691-6-6-6zm0 15.2C6.952 14.154 2.667 9.651 2.667 6A5.34 5.34 0 018 .667 5.34 5.34 0 0113.333 6c0 3.651-4.285 8.154-5.333 9.2z" fill="#000"/>
        <path d="M8 2.667A3.337 3.337 0 004.667 6 3.337 3.337 0 008 9.333 3.337 3.337 0 0011.333 6 3.337 3.337 0 008 2.667zm0 6A2.67 2.67 0 015.333 6 2.67 2.67 0 018 3.333 2.67 2.67 0 0110.667 6 2.67 2.67 0 018 8.666z" fill="#000"/>
    </svg>
    <svg fill="none" viewBox="0 0 17 17" id="phone" xmlns="http://www.w3.org/2000/svg">
        <g clip-path="url(#kclip0)" fill="#000">
            <path d="M16.554 13.115l-3.441-2.295a1.004 1.004 0 00-1.345.219l-1.002 1.288a.428.428 0 01-.55.116l-.19-.105c-.632-.345-1.419-.773-3.003-2.359-1.584-1.585-2.014-2.372-2.359-3.002l-.104-.191a.429.429 0 01.113-.551l1.288-1.002c.412-.323.507-.908.219-1.345L3.885.447A1 1 0 002.538.144L1.1 1.008A2.03 2.03 0 00.174 2.21c-.518 1.888-.128 5.146 4.671 9.946C8.663 15.973 11.505 17 13.46 17c.45.002.897-.057 1.331-.174a2.028 2.028 0 001.202-.926l.865-1.438a1 1 0 00-.303-1.347zm-.185 1.057l-.864 1.438c-.19.327-.5.567-.864.67-1.742.479-4.787.082-9.395-4.525C.638 7.147.242 4.102.72 2.359a1.47 1.47 0 01.67-.865L2.83.631a.433.433 0 01.584.131l1.247 1.872 1.046 1.569a.436.436 0 01-.095.583L4.324 5.788a.992.992 0 00-.262 1.273l.102.186c.362.664.812 1.49 2.455 3.133 1.644 1.643 2.47 2.093 3.133 2.455l.186.103c.43.241.973.13 1.273-.263l1.002-1.288a.436.436 0 01.584-.095l3.44 2.295a.433.433 0 01.132.585zM9.633 2.835a4.821 4.821 0 014.816 4.816.283.283 0 10.566 0A5.388 5.388 0 009.633 2.27a.283.283 0 100 .566z"/>
            <path d="M9.633 4.535a3.12 3.12 0 013.116 3.116.283.283 0 00.567 0 3.687 3.687 0 00-3.683-3.683.283.283 0 100 .567z"/>
            <path d="M9.633 6.235c.782 0 1.415.634 1.416 1.416a.283.283 0 10.567 0 1.985 1.985 0 00-1.983-1.983.283.283 0 100 .567z"/>
        </g>
        <defs>
            <clipPath id="kclip0">
                <path fill="#fff" d="M0 0h17v17H0z"/>
            </clipPath>
        </defs>
    </svg>
    <svg fill="none" viewBox="0 0 16 16" id="search" xmlns="http://www.w3.org/2000/svg">
        <g clip-path="url(#lclip0)">
            <path d="M15.902 15.431l-4.868-4.868a6.3 6.3 0 001.633-4.23A6.34 6.34 0 006.333 0 6.34 6.34 0 000 6.333a6.34 6.34 0 006.333 6.334 6.3 6.3 0 004.23-1.633l4.868 4.868a.332.332 0 00.471 0 .333.333 0 000-.471zM6.333 12A5.673 5.673 0 01.667 6.333 5.673 5.673 0 016.333.667 5.673 5.673 0 0112 6.333 5.673 5.673 0 016.333 12z" fill="#000"/>
        </g>
        <defs>
            <clipPath id="lclip0">
                <path fill="#fff" d="M0 0h16v16H0z"/>
            </clipPath>
        </defs>
    </svg>
    <svg fill="none" viewBox="0 0 16 16" id="user" xmlns="http://www.w3.org/2000/svg">
        <path d="M7.895 7.97a3.744 3.744 0 100-7.487 3.744 3.744 0 000 7.487zm0-6.853a3.11 3.11 0 110 6.219 3.11 3.11 0 010-6.219zm0 7.789c-1.627 0-3.14.632-4.264 1.78-1.139 1.164-1.764 2.754-1.764 4.48 0 .175.142.317.317.317h11.422a.318.318 0 00.317-.317c0-1.723-.625-3.316-1.764-4.477a5.912 5.912 0 00-4.264-1.783zM2.508 14.85c.07-1.434.625-2.745 1.574-3.716a5.286 5.286 0 013.81-1.589c1.453 0 2.808.565 3.81 1.59.952.97 1.504 2.28 1.574 3.715H2.508z" fill="#000"/>
    </svg>
    <svg fill="none" viewBox="0 0 27 27" id="vk" xmlns="http://www.w3.org/2000/svg">
        <g clip-path="url(#nclip0)">
            <path d="M13.663 21.938c3.906 0 2.513-2.473 2.815-3.184-.005-.531-.01-1.042.009-1.353.247.07.831.366 2.037 1.538 1.862 1.88 2.338 2.998 3.842 2.998h2.769c.877 0 1.334-.363 1.562-.668.22-.294.437-.812.2-1.617-.617-1.94-4.22-5.29-4.443-5.642a3.2 3.2 0 01.116-.197h-.003c.712-.94 3.425-5.005 3.824-6.632a.022.022 0 00.003-.01c.216-.742.018-1.223-.187-1.495-.308-.408-.799-.614-1.462-.614h-2.768c-.927 0-1.63.467-1.986 1.319-.595 1.513-2.267 4.625-3.52 5.726a72.124 72.124 0 01.008-3.637c.04-1.727.171-3.408-1.621-3.408h-4.352c-1.122 0-2.197 1.227-1.034 2.683 1.018 1.275.366 1.986.585 5.526-.854-.917-2.376-3.394-3.451-6.558-.301-.856-.758-1.65-2.044-1.65H1.793C.671 5.064 0 5.677 0 6.702c0 2.301 5.095 15.236 13.663 15.236zM4.562 6.75c.244 0 .269 0 .45.514 1.101 3.244 3.572 8.043 5.376 8.043 1.356 0 1.356-1.39 1.356-1.913l-.001-4.164c-.075-1.378-.576-2.065-.906-2.481l3.947.005c.002.019-.023 4.606.01 5.718 0 1.578 1.254 2.483 3.21.503 2.065-2.33 3.492-5.813 3.55-5.955.084-.202.157-.271.423-.271h2.78c-.001.003-.001.007-.003.01-.253 1.181-2.751 4.946-3.587 6.114a.976.976 0 00-.038.057c-.368.6-.668 1.264.05 2.198h.001c.066.079.236.263.483.52.77.794 3.409 3.51 3.643 4.59-.155.024-.324.006-2.94.012-.557 0-.992-.832-2.654-2.509-1.494-1.453-2.463-2.047-3.347-2.047-1.714 0-1.59 1.392-1.573 3.075.005 1.824-.006 1.247.006 1.362-.1.04-.387.118-1.135.118-7.138 0-11.787-11.33-11.965-13.495.062-.006.913-.003 2.864-.004z" fill="#CECECE"/>
        </g>
        <defs>
            <clipPath id="nclip0">
                <path fill="#fff" d="M0 0h27v27H0z"/>
            </clipPath>
        </defs>
    </svg>
</svg>
