<svg width="17" height="17" viewBox="0 0 17 17" fill="none" xmlns="http://www.w3.org/2000/svg">
<g clip-path="url(#clip0)">
<path d="M5.59608 12.4949C4.47777 12.4949 3.57129 13.4014 3.57129 14.5197C3.57129 15.6378 4.47777 16.5443 5.59608 16.5443C6.71424 16.5443 7.62072 15.6378 7.62072 14.5197C7.61956 13.4019 6.7138 12.496 5.59608 12.4949ZM5.59608 15.7999C4.88892 15.7999 4.31566 15.2267 4.31566 14.5197C4.31566 13.8125 4.88892 13.2392 5.59608 13.2392C6.30309 13.2392 6.87634 13.8125 6.87634 14.5197C6.87634 15.2267 6.30309 15.7999 5.59608 15.7999Z" fill="black"/>
<path d="M16.6314 3.99774H3.4894L3.22145 2.4978C3.05629 1.57445 2.33256 0.852176 1.40893 0.688907L0.437461 0.517788C0.234939 0.481733 0.0417211 0.616796 0.00566548 0.819173C-0.0302448 1.0217 0.104673 1.21491 0.307195 1.25097L1.2823 1.42209C1.89757 1.53113 2.37923 2.01279 2.48827 2.62806L3.80575 10.0606C3.96132 10.9499 4.73404 11.5987 5.63689 11.5978H13.4528C14.274 11.6003 14.9991 11.0628 15.2357 10.2765L16.985 4.47781C17.0174 4.3647 16.9969 4.24286 16.9291 4.14662C16.8583 4.05343 16.7483 3.99847 16.6314 3.99774ZM14.5247 10.0568C14.3843 10.5291 13.9492 10.8521 13.4566 10.8496H5.64067C5.09852 10.8511 4.63445 10.461 4.54271 9.92657L3.62344 4.73834H16.1326L14.5247 10.0568Z" fill="black"/>
<path d="M13.412 12.4949C12.2937 12.4949 11.3872 13.4014 11.3872 14.5197C11.3872 15.6378 12.2937 16.5443 13.412 16.5443C14.5302 16.5443 15.4366 15.6378 15.4366 14.5197C15.4355 13.4019 14.5297 12.496 13.412 12.4949ZM13.412 15.7999C12.7048 15.7999 12.1316 15.2267 12.1316 14.5197C12.1316 13.8125 12.7048 13.2392 13.412 13.2392C14.119 13.2392 14.6923 13.8125 14.6923 14.5197C14.6923 15.2267 14.119 15.7999 13.412 15.7999Z" fill="black"/>
</g>
<defs>
<clipPath id="clip0">
<rect width="17" height="17" fill="white"/>
</clipPath>
</defs>
</svg>
