<svg width="20" height="20" viewBox="0 0 20 20" fill="none" xmlns="http://www.w3.org/2000/svg">
<g clip-path="url(#clip0)">
<path d="M20 1.36276C20.0015 0.997568 19.8606 0.654716 19.6032 0.397294C19.3457 0.139873 19.0022 -0.000830527 18.6377 0.000497598C18.2736 0.00202104 17.9308 0.145107 17.6725 0.403388C17.5631 0.512763 17.3641 0.749013 17.2553 0.880146C17.141 1.01784 17.1599 1.22214 17.2976 1.3364C17.4353 1.45069 17.6396 1.43179 17.7539 1.29409C17.9243 1.08878 18.0652 0.927099 18.1307 0.86163C18.2673 0.725029 18.4483 0.649326 18.6404 0.648505C18.6415 0.648505 18.6425 0.648505 18.6435 0.648505C18.8334 0.648505 19.0114 0.721943 19.145 0.855497C19.2792 0.989755 19.3528 1.16894 19.352 1.36003C19.3511 1.5521 19.2754 1.73311 19.1388 1.86979C19.0165 1.9921 18.5961 2.32558 17.9938 2.74632C17.6375 2.13718 16.9768 1.72683 16.2216 1.72683H11.4769C10.8364 1.72683 10.2343 1.97624 9.78137 2.42909L0.297383 11.9132C0.105625 12.1049 0 12.3599 0 12.6311C0 12.9023 0.105625 13.1573 0.297383 13.349L6.65156 19.7032C6.84953 19.9011 7.10945 20 7.36945 20C7.62945 20 7.88945 19.901 8.08734 19.7032L17.5714 10.2191C18.0243 9.76624 18.2737 9.16413 18.2737 8.52362V3.77897C18.2737 3.63893 18.2595 3.50222 18.2326 3.36999C18.9182 2.89823 19.4215 2.50358 19.597 2.32804C19.8554 2.06976 19.9985 1.72694 20 1.36276ZM17.6257 8.52362C17.6257 8.991 17.4436 9.43042 17.1132 9.76085L7.62914 19.2449C7.48602 19.3881 7.25297 19.3881 7.1098 19.2449L0.755625 12.8908C0.686289 12.8214 0.648047 12.7292 0.648047 12.6311C0.648047 12.533 0.68625 12.4408 0.755625 12.3714L10.2396 2.88741C10.5702 2.55694 11.0095 2.37495 11.4769 2.37495H16.2215C16.7543 2.37495 17.2188 2.67327 17.4566 3.11163C17.0739 3.36507 16.6453 3.63456 16.1907 3.89956C16.1765 3.88401 16.162 3.86862 16.147 3.85358C15.6163 3.32296 14.753 3.32296 14.2223 3.85358C13.6917 4.38421 13.6917 5.24757 14.2223 5.77819C14.4877 6.0435 14.8362 6.17612 15.1846 6.17612C15.5331 6.17612 15.8816 6.0435 16.147 5.77819C16.5011 5.42401 16.6185 4.92171 16.4999 4.46894C16.8954 4.23874 17.2751 4.00347 17.6255 3.77585C17.6255 3.77694 17.6256 3.77796 17.6256 3.77901V8.52362H17.6257ZM14.8953 4.96147C14.9522 5.07464 15.0664 5.13995 15.185 5.13995C15.2339 5.13995 15.2837 5.12882 15.3304 5.1053C15.5203 5.00975 15.7096 4.91038 15.897 4.80858C15.8988 4.99354 15.8297 5.17909 15.6888 5.31995C15.4109 5.59788 14.9587 5.59788 14.6807 5.31995C14.4028 5.04198 14.4028 4.58979 14.6807 4.31183C14.8197 4.17284 15.0022 4.10339 15.1848 4.10339C15.3293 4.10339 15.4734 4.14768 15.5963 4.23476C15.4129 4.33444 15.2268 4.43206 15.0392 4.52647C14.8792 4.60683 14.8148 4.80163 14.8953 4.96147Z" fill="#EE766C"/>
<path d="M9.65477 6.6001C9.47583 6.6001 9.33075 6.74514 9.33075 6.92412V13.7671C9.33075 13.946 9.47583 14.0911 9.65477 14.0911C9.83372 14.0911 9.97879 13.946 9.97879 13.7671V6.92412C9.97879 6.74514 9.83372 6.6001 9.65477 6.6001Z" fill="#EE766C"/>
<path d="M8.17315 9.38337C7.64256 8.85267 6.77916 8.85271 6.24862 9.38333C5.71799 9.91395 5.71799 10.7773 6.24862 11.3079C6.51397 11.5733 6.8624 11.7059 7.21092 11.7059C7.55936 11.7059 7.90791 11.5732 8.17319 11.3079C8.43026 11.0509 8.57182 10.7091 8.57182 10.3456C8.57182 9.98212 8.43022 9.64036 8.17315 9.38337ZM7.71494 10.8497C7.43697 11.1276 6.98479 11.1276 6.70686 10.8497C6.42893 10.5717 6.42893 10.1195 6.70686 9.84153C6.84584 9.70255 7.02838 9.63309 7.21092 9.63309C7.39346 9.63309 7.576 9.70255 7.71498 9.84153C7.84963 9.97618 7.92377 10.1552 7.92377 10.3456C7.92373 10.536 7.84959 10.715 7.71494 10.8497Z" fill="#EE766C"/>
<path d="M13.0609 9.38333C12.5303 8.85267 11.6669 8.85271 11.1364 9.38333C10.6057 9.91396 10.6057 10.7773 11.1364 11.3079C11.4017 11.5733 11.7502 11.7059 12.0987 11.7059C12.4472 11.7059 12.7957 11.5733 13.0609 11.3079C13.5915 10.7773 13.5915 9.91396 13.0609 9.38333ZM12.6027 10.8497C12.3247 11.1276 11.8725 11.1276 11.5946 10.8497C11.3166 10.5717 11.3166 10.1195 11.5946 9.84154C11.7336 9.70255 11.9161 9.6331 12.0986 9.6331C12.2812 9.6331 12.4637 9.70255 12.6027 9.84154C12.8806 10.1195 12.8806 10.5717 12.6027 10.8497Z" fill="#EE766C"/>
</g>
<defs>
<clipPath id="clip0">
<rect width="20" height="20" fill="white"/>
</clipPath>
</defs>
</svg>
