<svg width="10" height="17" viewBox="0 0 10 17" fill="none" xmlns="http://www.w3.org/2000/svg">
<path d="M9.3651 0.169871L7.03095 0.166504C4.4086 0.166504 2.71392 1.72971 2.71392 4.14919V5.98547H0.367024C0.164225 5.98547 0 6.13329 0 6.31562V8.97619C0 9.15852 0.164412 9.30617 0.367024 9.30617H2.71392V16.0196C2.71392 16.202 2.87814 16.3496 3.08094 16.3496H6.14297C6.34577 16.3496 6.51 16.2018 6.51 16.0196V9.30617H9.25406C9.45686 9.30617 9.62109 9.15852 9.62109 8.97619L9.62221 6.31562C9.62221 6.22808 9.58345 6.14423 9.51472 6.08228C9.446 6.02032 9.35237 5.98547 9.255 5.98547H6.51V4.42883C6.51 3.68065 6.7083 3.30083 7.79233 3.30083L9.36473 3.30033C9.56734 3.30033 9.73157 3.15251 9.73157 2.97034V0.499853C9.73157 0.317858 9.56753 0.170208 9.3651 0.169871Z" fill="#CECECE"/>
</svg>
