<svg width="21" height="21" viewBox="0 0 21 21" fill="none" xmlns="http://www.w3.org/2000/svg">
<path d="M9.625 15.75H11.375C11.8562 15.75 12.25 15.3562 12.25 14.875C12.25 14.3938 11.8562 14 11.375 14H9.625C9.14375 14 8.75 14.3938 8.75 14.875C8.75 15.3562 9.14375 15.75 9.625 15.75ZM2.625 6.125C2.625 6.60625 3.01875 7 3.5 7H17.5C17.9812 7 18.375 6.60625 18.375 6.125C18.375 5.64375 17.9812 5.25 17.5 5.25H3.5C3.01875 5.25 2.625 5.64375 2.625 6.125ZM6.125 11.375H14.875C15.3562 11.375 15.75 10.9812 15.75 10.5C15.75 10.0188 15.3562 9.625 14.875 9.625H6.125C5.64375 9.625 5.25 10.0188 5.25 10.5C5.25 10.9812 5.64375 11.375 6.125 11.375Z" fill="#6C6C6C"/>
</svg>
