<svg width="16" height="16" viewBox="0 0 16 16" fill="none" xmlns="http://www.w3.org/2000/svg">
<path d="M11.8333 0.666748C10.0586 0.666748 8.59278 2.31519 8 3.09319C7.40722 2.31519 5.94141 0.666748 4.16666 0.666748C1.86916 0.666748 0 2.77906 0 5.37509C0 6.79144 0.562187 8.1114 1.54622 9.01475C1.56053 9.0395 1.57812 9.06228 1.59862 9.08278L7.76466 15.2361C7.82975 15.3009 7.91472 15.3334 8 15.3334C8.08528 15.3334 8.17056 15.3009 8.23569 15.2358L14.6068 8.86697L14.6725 8.80315C14.7246 8.754 14.7761 8.70419 14.8337 8.6404C14.8577 8.61665 14.8776 8.58994 14.8929 8.56097C15.6074 7.68597 16 6.55737 16 5.37509C16 2.77906 14.1309 0.666748 11.8333 0.666748ZM14.3382 8.18597C14.3291 8.19672 14.3206 8.20809 14.3132 8.21981C14.2819 8.25562 14.2477 8.28719 14.2139 8.31944L7.99969 14.5291L2.14584 8.68694C2.12697 8.64981 2.10059 8.61597 2.06838 8.58766C1.17741 7.80966 0.666656 6.63875 0.666656 5.37509C0.666656 3.14656 2.23666 1.33344 4.16666 1.33344C6.07487 1.33344 7.70344 3.82237 7.71972 3.84744C7.84278 4.03753 8.15722 4.03753 8.28028 3.84744C8.29656 3.82237 9.92513 1.33344 11.8333 1.33344C13.7633 1.33344 15.3333 3.14659 15.3333 5.37509C15.3333 6.42522 14.9798 7.42359 14.3382 8.18597Z" fill="black"/>
</svg>
