<svg width="16" height="16" viewBox="0 0 16 16" fill="none" xmlns="http://www.w3.org/2000/svg">
<path d="M14.6667 2H1.33334C0.597969 2 0 2.59797 0 3.33334V12.6667C0 13.402 0.597969 14 1.33334 14H14.6667C15.402 14 16 13.402 16 12.6667V3.33334C16 2.59797 15.402 2 14.6667 2ZM1.33334 2.66666H14.6667C14.7032 2.66666 14.7347 2.68184 14.7696 2.6875L8.35416 7.89616C8.13734 8.03319 7.82747 8.01106 7.66959 7.91375L1.23016 2.68759C1.26513 2.68187 1.29675 2.66666 1.33334 2.66666ZM15.3333 12.6667C15.3333 13.0342 15.0342 13.3333 14.6667 13.3333H1.33334C0.965844 13.3333 0.666687 13.0342 0.666687 12.6667V3.33334C0.666687 3.25881 0.686594 3.19006 0.70925 3.12309L7.27866 8.45247C7.49513 8.59244 7.74481 8.66666 8 8.66666C8.24609 8.66666 8.48634 8.59797 8.69728 8.46744C8.71681 8.45734 8.73538 8.44531 8.75228 8.43131L15.2907 3.12294C15.3134 3.18997 15.3333 3.25875 15.3333 3.33334V12.6667H15.3333Z" fill="black"/>
</svg>
