<svg width="17" height="17" viewBox="0 0 17 17" fill="none" xmlns="http://www.w3.org/2000/svg">
<g clip-path="url(#clip0)">
<path d="M16.5538 13.115L13.1129 10.8203C12.6763 10.5314 12.091 10.6265 11.7681 11.0387L10.7658 12.3274C10.637 12.4972 10.4029 12.5465 10.2165 12.443L10.0259 12.3379C9.39386 11.9934 8.60746 11.5645 7.02301 9.97949C5.43856 8.39448 5.00881 7.60748 4.66431 6.97662L4.55977 6.78596C4.45483 6.59965 4.50317 6.36451 4.67308 6.23467L5.9609 5.23268C6.37296 4.90983 6.46814 4.32468 6.17961 3.88789L3.88495 0.44703C3.58926 0.00224006 2.996 -0.131283 2.53823 0.143897L1.09939 1.00821C0.647299 1.274 0.315615 1.70444 0.173892 2.20936C-0.344232 4.0972 0.0455477 7.35534 4.84508 12.1554C8.663 15.9731 11.5053 16.9997 13.4588 16.9997C13.9085 17.0016 14.3563 16.9431 14.7903 16.8258C15.2953 16.6842 15.7259 16.3525 15.9915 15.9003L16.8567 14.4623C17.1322 14.0044 16.9988 13.4108 16.5538 13.115ZM16.3685 14.1716L15.5053 15.6105C15.3146 15.9369 15.005 16.1769 14.6413 16.2802C12.8985 16.7587 9.85366 16.3623 5.24591 11.7546C0.638169 7.14686 0.241882 4.10232 0.720368 2.35925C0.823813 1.99513 1.0641 1.68509 1.39091 1.49407L2.82975 0.630881C3.02837 0.511368 3.28586 0.569298 3.41417 0.762313L4.66066 2.63373L5.70687 4.20287C5.83216 4.39234 5.79099 4.64627 5.61226 4.78647L4.32413 5.78845C3.93213 6.0882 3.82018 6.63056 4.06153 7.06101L4.16382 7.24685C4.52588 7.91088 4.97601 8.73695 6.61939 10.3801C8.26277 12.0231 9.08857 12.4733 9.7523 12.8353L9.93841 12.9379C10.3688 13.1792 10.9112 13.0673 11.211 12.6753L12.213 11.3872C12.3532 11.2085 12.607 11.1674 12.7965 11.2925L16.2371 13.5872C16.4303 13.7154 16.4882 13.973 16.3685 14.1716Z" fill="black"/>
<path d="M9.63289 2.83512C12.2914 2.83807 14.4459 4.99253 14.4489 7.65108C14.4489 7.80754 14.5757 7.93436 14.7321 7.93436C14.8886 7.93436 15.0154 7.80754 15.0154 7.65108C15.0121 4.67974 12.6042 2.27181 9.63289 2.26855C9.47643 2.26855 9.34961 2.39537 9.34961 2.55184C9.34961 2.7083 9.47643 2.83512 9.63289 2.83512Z" fill="black"/>
<path d="M9.63289 4.53482C11.3531 4.53685 12.7471 5.93084 12.7491 7.65104C12.7491 7.8075 12.876 7.93432 13.0324 7.93432C13.1888 7.93432 13.3157 7.8075 13.3157 7.65104C13.3133 5.61805 11.6658 3.97059 9.63289 3.96826C9.47643 3.96826 9.34961 4.09508 9.34961 4.25154C9.34961 4.40801 9.47643 4.53482 9.63289 4.53482Z" fill="black"/>
<path d="M9.63289 6.23453C10.4148 6.23546 11.0484 6.86908 11.0494 7.651C11.0494 7.80746 11.1762 7.93428 11.3326 7.93428C11.4891 7.93428 11.6159 7.80746 11.6159 7.651C11.6147 6.55632 10.7276 5.6692 9.63289 5.66797C9.47643 5.66797 9.34961 5.79479 9.34961 5.95125C9.34961 6.10771 9.47643 6.23453 9.63289 6.23453Z" fill="black"/>
</g>
<defs>
<clipPath id="clip0">
<rect width="17" height="17" fill="white"/>
</clipPath>
</defs>
</svg>
