<svg width="16" height="16" viewBox="0 0 16 16" fill="none" xmlns="http://www.w3.org/2000/svg">
<path d="M8 0C4.69141 0 2 2.69172 2 6C2 10.4264 7.53581 15.6875 7.7715 15.9095C7.83594 15.9697 7.91797 16 8 16C8.08203 16 8.16406 15.9697 8.22853 15.9095C8.46419 15.6875 14 10.4264 14 6C14 2.69172 11.3086 0 8 0ZM8 15.2002C6.95247 14.1543 2.66666 9.65103 2.66666 6C2.66666 3.05925 5.05925 0.666656 8 0.666656C10.9407 0.666656 13.3333 3.05925 13.3333 6C13.3333 9.65103 9.04753 14.1543 8 15.2002Z" fill="black"/>
<path d="M7.99997 2.6665C6.16207 2.6665 4.66663 4.16194 4.66663 5.99985C4.66663 7.83775 6.1621 9.33319 7.99997 9.33319C9.83785 9.33319 11.3333 7.83775 11.3333 5.99985C11.3333 4.16194 9.83788 2.6665 7.99997 2.6665ZM7.99997 8.6665C6.52925 8.6665 5.33331 7.47022 5.33331 5.99985C5.33331 4.52947 6.52928 3.33319 7.99997 3.33319C9.47066 3.33319 10.6666 4.52947 10.6666 5.99985C10.6666 7.47022 9.4707 8.6665 7.99997 8.6665Z" fill="black"/>
</svg>
